<mxfile host="app.diagrams.net" agent="Mozilla/5.0 (Windows NT 10.0; Win64; x64) AppleWebKit/537.36 (KHTML, like Gecko) Chrome/135.0.0.0 Safari/537.36 Edg/135.0.0.0" version="26.2.14">
  <diagram name="Page-1" id="trBqDJ9bU0Y8Q7ycHVe_">
    <mxGraphModel dx="989" dy="639" grid="1" gridSize="10" guides="1" tooltips="1" connect="1" arrows="1" fold="1" page="1" pageScale="1" pageWidth="827" pageHeight="1169" math="0" shadow="0">
      <root>
        <mxCell id="0" />
        <mxCell id="1" parent="0" />
        <mxCell id="JigIvYNYRkP4Nbl_iMZG-48" style="edgeStyle=orthogonalEdgeStyle;rounded=0;orthogonalLoop=1;jettySize=auto;html=1;" parent="1" source="JigIvYNYRkP4Nbl_iMZG-2" target="JigIvYNYRkP4Nbl_iMZG-3" edge="1">
          <mxGeometry relative="1" as="geometry" />
        </mxCell>
        <mxCell id="JigIvYNYRkP4Nbl_iMZG-49" value="Authenticate" style="edgeLabel;html=1;align=center;verticalAlign=middle;resizable=0;points=[];" parent="JigIvYNYRkP4Nbl_iMZG-48" vertex="1" connectable="0">
          <mxGeometry x="0.0908" y="2" relative="1" as="geometry">
            <mxPoint as="offset" />
          </mxGeometry>
        </mxCell>
        <mxCell id="JigIvYNYRkP4Nbl_iMZG-50" style="edgeStyle=orthogonalEdgeStyle;rounded=0;orthogonalLoop=1;jettySize=auto;html=1;" parent="1" source="JigIvYNYRkP4Nbl_iMZG-2" target="JigIvYNYRkP4Nbl_iMZG-4" edge="1">
          <mxGeometry relative="1" as="geometry">
            <Array as="points">
              <mxPoint x="2410" y="330" />
              <mxPoint x="2410" y="417" />
            </Array>
          </mxGeometry>
        </mxCell>
        <mxCell id="JigIvYNYRkP4Nbl_iMZG-51" value="Home" style="edgeLabel;html=1;align=center;verticalAlign=middle;resizable=0;points=[];" parent="JigIvYNYRkP4Nbl_iMZG-50" vertex="1" connectable="0">
          <mxGeometry x="-0.2688" y="-2" relative="1" as="geometry">
            <mxPoint as="offset" />
          </mxGeometry>
        </mxCell>
        <mxCell id="JigIvYNYRkP4Nbl_iMZG-52" style="edgeStyle=orthogonalEdgeStyle;rounded=0;orthogonalLoop=1;jettySize=auto;html=1;" parent="1" source="JigIvYNYRkP4Nbl_iMZG-2" target="JigIvYNYRkP4Nbl_iMZG-5" edge="1">
          <mxGeometry relative="1" as="geometry">
            <Array as="points">
              <mxPoint x="2160" y="510" />
            </Array>
          </mxGeometry>
        </mxCell>
        <mxCell id="JigIvYNYRkP4Nbl_iMZG-53" style="edgeStyle=orthogonalEdgeStyle;rounded=0;orthogonalLoop=1;jettySize=auto;html=1;" parent="1" source="JigIvYNYRkP4Nbl_iMZG-2" target="JigIvYNYRkP4Nbl_iMZG-6" edge="1">
          <mxGeometry relative="1" as="geometry">
            <mxPoint x="2142" y="650" as="targetPoint" />
            <Array as="points">
              <mxPoint x="2170" y="627" />
            </Array>
          </mxGeometry>
        </mxCell>
        <mxCell id="JigIvYNYRkP4Nbl_iMZG-56" style="edgeStyle=orthogonalEdgeStyle;rounded=0;orthogonalLoop=1;jettySize=auto;html=1;" parent="1" source="JigIvYNYRkP4Nbl_iMZG-2" target="JigIvYNYRkP4Nbl_iMZG-7" edge="1">
          <mxGeometry relative="1" as="geometry">
            <Array as="points">
              <mxPoint x="2120" y="680" />
            </Array>
          </mxGeometry>
        </mxCell>
        <mxCell id="JigIvYNYRkP4Nbl_iMZG-57" value="search&lt;br&gt;all categories&lt;div&gt;&lt;br&gt;&lt;/div&gt;" style="edgeLabel;html=1;align=center;verticalAlign=middle;resizable=0;points=[];" parent="JigIvYNYRkP4Nbl_iMZG-56" vertex="1" connectable="0">
          <mxGeometry x="-0.3961" y="-3" relative="1" as="geometry">
            <mxPoint as="offset" />
          </mxGeometry>
        </mxCell>
        <mxCell id="JigIvYNYRkP4Nbl_iMZG-2" value="User" style="whiteSpace=wrap;strokeWidth=2;" parent="1" vertex="1">
          <mxGeometry x="2096" y="280" width="92" height="54" as="geometry" />
        </mxCell>
        <mxCell id="JigIvYNYRkP4Nbl_iMZG-3" value="Authenticate" style="whiteSpace=wrap;strokeWidth=2;" parent="1" vertex="1">
          <mxGeometry x="2450" y="280" width="153" height="54" as="geometry" />
        </mxCell>
        <mxCell id="JigIvYNYRkP4Nbl_iMZG-4" value="View Home" style="whiteSpace=wrap;strokeWidth=2;" parent="1" vertex="1">
          <mxGeometry x="2456.5" y="390" width="140" height="54" as="geometry" />
        </mxCell>
        <mxCell id="JigIvYNYRkP4Nbl_iMZG-54" style="edgeStyle=orthogonalEdgeStyle;rounded=0;orthogonalLoop=1;jettySize=auto;html=1;" parent="1" source="JigIvYNYRkP4Nbl_iMZG-5" target="JigIvYNYRkP4Nbl_iMZG-7" edge="1">
          <mxGeometry relative="1" as="geometry">
            <Array as="points">
              <mxPoint x="2267" y="540" />
            </Array>
          </mxGeometry>
        </mxCell>
        <mxCell id="JigIvYNYRkP4Nbl_iMZG-55" value="search by categories" style="edgeLabel;html=1;align=center;verticalAlign=middle;resizable=0;points=[];" parent="JigIvYNYRkP4Nbl_iMZG-54" vertex="1" connectable="0">
          <mxGeometry x="-0.1179" y="-2" relative="1" as="geometry">
            <mxPoint as="offset" />
          </mxGeometry>
        </mxCell>
        <mxCell id="JigIvYNYRkP4Nbl_iMZG-5" value="Browse Services" style="whiteSpace=wrap;strokeWidth=2;" parent="1" vertex="1">
          <mxGeometry x="2439.5" y="490" width="174" height="54" as="geometry" />
        </mxCell>
        <mxCell id="JigIvYNYRkP4Nbl_iMZG-6" value="View Best Services" style="whiteSpace=wrap;strokeWidth=2;" parent="1" vertex="1">
          <mxGeometry x="2430" y="600" width="193" height="54" as="geometry" />
        </mxCell>
        <mxCell id="JigIvYNYRkP4Nbl_iMZG-7" value="Browse All Categories" style="whiteSpace=wrap;strokeWidth=2;" parent="1" vertex="1">
          <mxGeometry x="2160" y="654" width="214" height="54" as="geometry" />
        </mxCell>
        <mxCell id="JigIvYNYRkP4Nbl_iMZG-58" style="edgeStyle=orthogonalEdgeStyle;rounded=0;orthogonalLoop=1;jettySize=auto;html=1;" parent="1" source="JigIvYNYRkP4Nbl_iMZG-8" target="JigIvYNYRkP4Nbl_iMZG-2" edge="1">
          <mxGeometry relative="1" as="geometry" />
        </mxCell>
        <mxCell id="JigIvYNYRkP4Nbl_iMZG-59" value="book service" style="edgeLabel;html=1;align=center;verticalAlign=middle;resizable=0;points=[];" parent="JigIvYNYRkP4Nbl_iMZG-58" vertex="1" connectable="0">
          <mxGeometry x="0.0492" y="4" relative="1" as="geometry">
            <mxPoint as="offset" />
          </mxGeometry>
        </mxCell>
        <mxCell id="JigIvYNYRkP4Nbl_iMZG-74" style="edgeStyle=orthogonalEdgeStyle;rounded=0;orthogonalLoop=1;jettySize=auto;html=1;" parent="1" source="JigIvYNYRkP4Nbl_iMZG-8" target="JigIvYNYRkP4Nbl_iMZG-19" edge="1">
          <mxGeometry relative="1" as="geometry">
            <Array as="points">
              <mxPoint x="1786" y="330" />
            </Array>
          </mxGeometry>
        </mxCell>
        <mxCell id="JigIvYNYRkP4Nbl_iMZG-8" value="Book Service" style="whiteSpace=wrap;strokeWidth=2;" parent="1" vertex="1">
          <mxGeometry x="1710" y="220" width="151" height="54" as="geometry" />
        </mxCell>
        <mxCell id="JigIvYNYRkP4Nbl_iMZG-67" style="edgeStyle=orthogonalEdgeStyle;rounded=0;orthogonalLoop=1;jettySize=auto;html=1;" parent="1" source="JigIvYNYRkP4Nbl_iMZG-9" target="JigIvYNYRkP4Nbl_iMZG-8" edge="1">
          <mxGeometry relative="1" as="geometry">
            <mxPoint x="1320" y="920" as="targetPoint" />
          </mxGeometry>
        </mxCell>
        <mxCell id="JigIvYNYRkP4Nbl_iMZG-68" value="book service" style="edgeLabel;html=1;align=center;verticalAlign=middle;resizable=0;points=[];" parent="JigIvYNYRkP4Nbl_iMZG-67" vertex="1" connectable="0">
          <mxGeometry x="0.0512" y="-1" relative="1" as="geometry">
            <mxPoint as="offset" />
          </mxGeometry>
        </mxCell>
        <mxCell id="JigIvYNYRkP4Nbl_iMZG-69" style="edgeStyle=orthogonalEdgeStyle;rounded=0;orthogonalLoop=1;jettySize=auto;html=1;" parent="1" source="JigIvYNYRkP4Nbl_iMZG-9" target="JigIvYNYRkP4Nbl_iMZG-10" edge="1">
          <mxGeometry relative="1" as="geometry" />
        </mxCell>
        <mxCell id="JigIvYNYRkP4Nbl_iMZG-70" value="register as service provider" style="edgeLabel;html=1;align=center;verticalAlign=middle;resizable=0;points=[];" parent="JigIvYNYRkP4Nbl_iMZG-69" vertex="1" connectable="0">
          <mxGeometry x="0.0805" relative="1" as="geometry">
            <mxPoint as="offset" />
          </mxGeometry>
        </mxCell>
        <mxCell id="JigIvYNYRkP4Nbl_iMZG-9" value="Customer" style="whiteSpace=wrap;strokeWidth=2;" parent="1" vertex="1">
          <mxGeometry x="900" y="220" width="128" height="54" as="geometry" />
        </mxCell>
        <mxCell id="JigIvYNYRkP4Nbl_iMZG-75" style="edgeStyle=orthogonalEdgeStyle;rounded=0;orthogonalLoop=1;jettySize=auto;html=1;" parent="1" source="JigIvYNYRkP4Nbl_iMZG-10" edge="1">
          <mxGeometry relative="1" as="geometry">
            <mxPoint x="301.50449275362314" y="460" as="sourcePoint" />
            <mxPoint x="290.4899999999999" y="544" as="targetPoint" />
            <Array as="points">
              <mxPoint x="290" y="503" />
              <mxPoint x="291" y="503" />
            </Array>
          </mxGeometry>
        </mxCell>
        <mxCell id="JigIvYNYRkP4Nbl_iMZG-76" value="provide service" style="edgeLabel;html=1;align=center;verticalAlign=middle;resizable=0;points=[];" parent="JigIvYNYRkP4Nbl_iMZG-75" vertex="1" connectable="0">
          <mxGeometry x="-0.2291" relative="1" as="geometry">
            <mxPoint as="offset" />
          </mxGeometry>
        </mxCell>
        <mxCell id="JigIvYNYRkP4Nbl_iMZG-10" value="Register as Service Provider" style="whiteSpace=wrap;strokeWidth=2;" parent="1" vertex="1">
          <mxGeometry x="167" y="406" width="258" height="54" as="geometry" />
        </mxCell>
        <mxCell id="JigIvYNYRkP4Nbl_iMZG-77" style="edgeStyle=orthogonalEdgeStyle;rounded=0;orthogonalLoop=1;jettySize=auto;html=1;" parent="1" source="JigIvYNYRkP4Nbl_iMZG-11" target="JigIvYNYRkP4Nbl_iMZG-14" edge="1">
          <mxGeometry relative="1" as="geometry" />
        </mxCell>
        <mxCell id="JigIvYNYRkP4Nbl_iMZG-78" value="update service availability" style="edgeLabel;html=1;align=center;verticalAlign=middle;resizable=0;points=[];" parent="JigIvYNYRkP4Nbl_iMZG-77" vertex="1" connectable="0">
          <mxGeometry x="-0.1757" y="-1" relative="1" as="geometry">
            <mxPoint x="62" y="1" as="offset" />
          </mxGeometry>
        </mxCell>
        <mxCell id="JigIvYNYRkP4Nbl_iMZG-79" style="edgeStyle=orthogonalEdgeStyle;rounded=0;orthogonalLoop=1;jettySize=auto;html=1;" parent="1" source="JigIvYNYRkP4Nbl_iMZG-11" target="JigIvYNYRkP4Nbl_iMZG-12" edge="1">
          <mxGeometry relative="1" as="geometry">
            <Array as="points">
              <mxPoint x="1190" y="440" />
              <mxPoint x="1190" y="560" />
            </Array>
          </mxGeometry>
        </mxCell>
        <mxCell id="JigIvYNYRkP4Nbl_iMZG-80" value="Provide Service" style="edgeLabel;html=1;align=center;verticalAlign=middle;resizable=0;points=[];" parent="JigIvYNYRkP4Nbl_iMZG-79" vertex="1" connectable="0">
          <mxGeometry x="0.0687" y="-1" relative="1" as="geometry">
            <mxPoint as="offset" />
          </mxGeometry>
        </mxCell>
        <mxCell id="JigIvYNYRkP4Nbl_iMZG-81" style="edgeStyle=orthogonalEdgeStyle;rounded=0;orthogonalLoop=1;jettySize=auto;html=1;" parent="1" source="JigIvYNYRkP4Nbl_iMZG-11" target="JigIvYNYRkP4Nbl_iMZG-13" edge="1">
          <mxGeometry relative="1" as="geometry">
            <Array as="points">
              <mxPoint x="1320" y="560" />
              <mxPoint x="1320" y="560" />
            </Array>
          </mxGeometry>
        </mxCell>
        <mxCell id="JigIvYNYRkP4Nbl_iMZG-82" value="view pending" style="edgeLabel;html=1;align=center;verticalAlign=middle;resizable=0;points=[];" parent="JigIvYNYRkP4Nbl_iMZG-81" vertex="1" connectable="0">
          <mxGeometry x="-0.0066" y="-4" relative="1" as="geometry">
            <mxPoint as="offset" />
          </mxGeometry>
        </mxCell>
        <mxCell id="JigIvYNYRkP4Nbl_iMZG-11" value="Service Provider" style="whiteSpace=wrap;strokeWidth=2;" parent="1" vertex="1">
          <mxGeometry x="1229" y="406" width="176" height="54" as="geometry" />
        </mxCell>
        <mxCell id="JigIvYNYRkP4Nbl_iMZG-83" style="edgeStyle=orthogonalEdgeStyle;rounded=0;orthogonalLoop=1;jettySize=auto;html=1;" parent="1" source="JigIvYNYRkP4Nbl_iMZG-12" target="JigIvYNYRkP4Nbl_iMZG-14" edge="1">
          <mxGeometry relative="1" as="geometry">
            <Array as="points">
              <mxPoint x="620" y="580" />
              <mxPoint x="620" y="625" />
            </Array>
          </mxGeometry>
        </mxCell>
        <mxCell id="JigIvYNYRkP4Nbl_iMZG-84" value="update" style="edgeLabel;html=1;align=center;verticalAlign=middle;resizable=0;points=[];" parent="JigIvYNYRkP4Nbl_iMZG-83" vertex="1" connectable="0">
          <mxGeometry x="0.4058" y="-1" relative="1" as="geometry">
            <mxPoint as="offset" />
          </mxGeometry>
        </mxCell>
        <mxCell id="JigIvYNYRkP4Nbl_iMZG-85" style="edgeStyle=orthogonalEdgeStyle;rounded=0;orthogonalLoop=1;jettySize=auto;html=1;" parent="1" source="JigIvYNYRkP4Nbl_iMZG-12" target="JigIvYNYRkP4Nbl_iMZG-13" edge="1">
          <mxGeometry relative="1" as="geometry">
            <Array as="points">
              <mxPoint x="285" y="720" />
              <mxPoint x="1317" y="720" />
            </Array>
          </mxGeometry>
        </mxCell>
        <mxCell id="JigIvYNYRkP4Nbl_iMZG-86" value="view pending" style="edgeLabel;html=1;align=center;verticalAlign=middle;resizable=0;points=[];" parent="JigIvYNYRkP4Nbl_iMZG-85" vertex="1" connectable="0">
          <mxGeometry x="-0.0041" y="-4" relative="1" as="geometry">
            <mxPoint as="offset" />
          </mxGeometry>
        </mxCell>
        <mxCell id="JigIvYNYRkP4Nbl_iMZG-12" value="Provide Service" style="whiteSpace=wrap;strokeWidth=2;" parent="1" vertex="1">
          <mxGeometry x="200" y="544" width="170" height="54" as="geometry" />
        </mxCell>
        <mxCell id="JigIvYNYRkP4Nbl_iMZG-13" value="View Pending Requests" style="whiteSpace=wrap;strokeWidth=2;" parent="1" vertex="1">
          <mxGeometry x="1205.5" y="600" width="223" height="54" as="geometry" />
        </mxCell>
        <mxCell id="JigIvYNYRkP4Nbl_iMZG-14" value="Update Service Availability" style="whiteSpace=wrap;strokeWidth=2;" parent="1" vertex="1">
          <mxGeometry x="870" y="598" width="252" height="54" as="geometry" />
        </mxCell>
        <mxCell id="JigIvYNYRkP4Nbl_iMZG-63" style="edgeStyle=orthogonalEdgeStyle;rounded=0;orthogonalLoop=1;jettySize=auto;html=1;" parent="1" source="JigIvYNYRkP4Nbl_iMZG-15" target="JigIvYNYRkP4Nbl_iMZG-16" edge="1">
          <mxGeometry relative="1" as="geometry">
            <Array as="points">
              <mxPoint x="1759" y="347" />
            </Array>
          </mxGeometry>
        </mxCell>
        <mxCell id="JigIvYNYRkP4Nbl_iMZG-64" style="edgeStyle=orthogonalEdgeStyle;rounded=0;orthogonalLoop=1;jettySize=auto;html=1;" parent="1" source="JigIvYNYRkP4Nbl_iMZG-15" target="JigIvYNYRkP4Nbl_iMZG-17" edge="1">
          <mxGeometry relative="1" as="geometry">
            <Array as="points">
              <mxPoint x="1639" y="386" />
              <mxPoint x="1543" y="386" />
            </Array>
          </mxGeometry>
        </mxCell>
        <mxCell id="JigIvYNYRkP4Nbl_iMZG-15" value="Admin" style="whiteSpace=wrap;strokeWidth=2;" parent="1" vertex="1">
          <mxGeometry x="1586" y="340" width="105" height="54" as="geometry" />
        </mxCell>
        <mxCell id="JigIvYNYRkP4Nbl_iMZG-16" value="Manage Users" style="whiteSpace=wrap;strokeWidth=2;" parent="1" vertex="1">
          <mxGeometry x="1681" y="406" width="157" height="54" as="geometry" />
        </mxCell>
        <mxCell id="JigIvYNYRkP4Nbl_iMZG-17" value="Manage Services" style="whiteSpace=wrap;strokeWidth=2;" parent="1" vertex="1">
          <mxGeometry x="1455" y="406" width="177" height="54" as="geometry" />
        </mxCell>
        <mxCell id="JigIvYNYRkP4Nbl_iMZG-65" style="edgeStyle=orthogonalEdgeStyle;rounded=0;orthogonalLoop=1;jettySize=auto;html=1;" parent="1" source="JigIvYNYRkP4Nbl_iMZG-18" target="JigIvYNYRkP4Nbl_iMZG-15" edge="1">
          <mxGeometry relative="1" as="geometry">
            <Array as="points">
              <mxPoint x="551" y="350" />
            </Array>
          </mxGeometry>
        </mxCell>
        <mxCell id="JigIvYNYRkP4Nbl_iMZG-66" value="view reports" style="edgeLabel;html=1;align=center;verticalAlign=middle;resizable=0;points=[];" parent="JigIvYNYRkP4Nbl_iMZG-65" vertex="1" connectable="0">
          <mxGeometry x="-0.0134" relative="1" as="geometry">
            <mxPoint as="offset" />
          </mxGeometry>
        </mxCell>
        <mxCell id="JigIvYNYRkP4Nbl_iMZG-72" style="edgeStyle=orthogonalEdgeStyle;rounded=0;orthogonalLoop=1;jettySize=auto;html=1;" parent="1" source="JigIvYNYRkP4Nbl_iMZG-18" target="JigIvYNYRkP4Nbl_iMZG-22" edge="1">
          <mxGeometry relative="1" as="geometry" />
        </mxCell>
        <mxCell id="JigIvYNYRkP4Nbl_iMZG-73" value="Generate&lt;br&gt;report" style="edgeLabel;html=1;align=center;verticalAlign=middle;resizable=0;points=[];" parent="JigIvYNYRkP4Nbl_iMZG-72" vertex="1" connectable="0">
          <mxGeometry x="0.079" y="2" relative="1" as="geometry">
            <mxPoint as="offset" />
          </mxGeometry>
        </mxCell>
        <mxCell id="JigIvYNYRkP4Nbl_iMZG-18" value="View Reports" style="whiteSpace=wrap;strokeWidth=2;" parent="1" vertex="1">
          <mxGeometry x="475" y="406" width="153" height="54" as="geometry" />
        </mxCell>
        <mxCell id="JigIvYNYRkP4Nbl_iMZG-19" value="Confirm Booking" style="whiteSpace=wrap;strokeWidth=2;" parent="1" vertex="1">
          <mxGeometry x="1850" y="300" width="177" height="54" as="geometry" />
        </mxCell>
        <mxCell id="JigIvYNYRkP4Nbl_iMZG-20" value="View Users" style="whiteSpace=wrap;strokeWidth=2;" parent="1" vertex="1">
          <mxGeometry x="1691" y="533" width="137" height="54" as="geometry" />
        </mxCell>
        <mxCell id="JigIvYNYRkP4Nbl_iMZG-21" value="View Services" style="whiteSpace=wrap;strokeWidth=2;" parent="1" vertex="1">
          <mxGeometry x="1464" y="533" width="157" height="54" as="geometry" />
        </mxCell>
        <mxCell id="JigIvYNYRkP4Nbl_iMZG-22" value="Generate Report" style="whiteSpace=wrap;strokeWidth=2;" parent="1" vertex="1">
          <mxGeometry x="721" y="406" width="179" height="54" as="geometry" />
        </mxCell>
        <mxCell id="JigIvYNYRkP4Nbl_iMZG-37" value="Go to Home" style="curved=1;startArrow=none;endArrow=block;rounded=0;" parent="1" source="JigIvYNYRkP4Nbl_iMZG-3" target="JigIvYNYRkP4Nbl_iMZG-4" edge="1">
          <mxGeometry relative="1" as="geometry">
            <Array as="points" />
          </mxGeometry>
        </mxCell>
        <mxCell id="JigIvYNYRkP4Nbl_iMZG-38" value="Browse Services" style="curved=1;startArrow=none;endArrow=block;exitX=0.5;exitY=1;entryX=0.5;entryY=0;rounded=0;" parent="1" source="JigIvYNYRkP4Nbl_iMZG-4" target="JigIvYNYRkP4Nbl_iMZG-5" edge="1">
          <mxGeometry relative="1" as="geometry">
            <Array as="points" />
          </mxGeometry>
        </mxCell>
        <mxCell id="JigIvYNYRkP4Nbl_iMZG-39" value="View Best Services" style="curved=1;startArrow=none;endArrow=block;exitX=0.5;exitY=1;entryX=0.5;entryY=-0.01;rounded=0;" parent="1" source="JigIvYNYRkP4Nbl_iMZG-5" target="JigIvYNYRkP4Nbl_iMZG-6" edge="1">
          <mxGeometry relative="1" as="geometry">
            <Array as="points" />
          </mxGeometry>
        </mxCell>
        <mxCell id="JigIvYNYRkP4Nbl_iMZG-45" value="View Users" style="curved=1;startArrow=none;endArrow=block;exitX=0.5;exitY=1.01;entryX=0.5;entryY=0;rounded=0;" parent="1" source="JigIvYNYRkP4Nbl_iMZG-16" target="JigIvYNYRkP4Nbl_iMZG-20" edge="1">
          <mxGeometry relative="1" as="geometry">
            <Array as="points" />
          </mxGeometry>
        </mxCell>
        <mxCell id="JigIvYNYRkP4Nbl_iMZG-46" value="View Services" style="curved=1;startArrow=none;endArrow=block;exitX=0.5;exitY=1.01;entryX=0.5;entryY=0;rounded=0;" parent="1" source="JigIvYNYRkP4Nbl_iMZG-17" target="JigIvYNYRkP4Nbl_iMZG-21" edge="1">
          <mxGeometry relative="1" as="geometry">
            <Array as="points" />
          </mxGeometry>
        </mxCell>
        <mxCell id="JigIvYNYRkP4Nbl_iMZG-88" value="User Open App" style="whiteSpace=wrap;strokeWidth=2;" parent="1" vertex="1">
          <mxGeometry x="428" y="850" width="165" height="54" as="geometry" />
        </mxCell>
        <mxCell id="JigIvYNYRkP4Nbl_iMZG-89" value="Authenticate" style="whiteSpace=wrap;strokeWidth=2;" parent="1" vertex="1">
          <mxGeometry x="434" y="954" width="153" height="54" as="geometry" />
        </mxCell>
        <mxCell id="JigIvYNYRkP4Nbl_iMZG-90" value="Login Success?" style="rhombus;strokeWidth=2;whiteSpace=wrap;" parent="1" vertex="1">
          <mxGeometry x="432" y="1080" width="157" height="157" as="geometry" />
        </mxCell>
        <mxCell id="JigIvYNYRkP4Nbl_iMZG-91" value="Go to Home" style="whiteSpace=wrap;strokeWidth=2;" parent="1" vertex="1">
          <mxGeometry x="438" y="1309" width="145" height="54" as="geometry" />
        </mxCell>
        <mxCell id="JigIvYNYRkP4Nbl_iMZG-92" value="View Best Services" style="whiteSpace=wrap;strokeWidth=2;" parent="1" vertex="1">
          <mxGeometry x="40" y="1413" width="193" height="54" as="geometry" />
        </mxCell>
        <mxCell id="JigIvYNYRkP4Nbl_iMZG-93" value="Browse All Categories" style="whiteSpace=wrap;strokeWidth=2;" parent="1" vertex="1">
          <mxGeometry x="283" y="1413" width="214" height="54" as="geometry" />
        </mxCell>
        <mxCell id="JigIvYNYRkP4Nbl_iMZG-94" value="Choose Service" style="whiteSpace=wrap;strokeWidth=2;" parent="1" vertex="1">
          <mxGeometry x="547" y="1413" width="167" height="54" as="geometry" />
        </mxCell>
        <mxCell id="JigIvYNYRkP4Nbl_iMZG-95" value="Book Service" style="whiteSpace=wrap;strokeWidth=2;" parent="1" vertex="1">
          <mxGeometry x="555" y="1517" width="151" height="54" as="geometry" />
        </mxCell>
        <mxCell id="JigIvYNYRkP4Nbl_iMZG-96" value="Confirm Booking" style="whiteSpace=wrap;strokeWidth=2;" parent="1" vertex="1">
          <mxGeometry x="542" y="1621" width="177" height="54" as="geometry" />
        </mxCell>
        <mxCell id="JigIvYNYRkP4Nbl_iMZG-97" value="Receive Confirmation" style="whiteSpace=wrap;strokeWidth=2;" parent="1" vertex="1">
          <mxGeometry x="524" y="1725" width="214" height="54" as="geometry" />
        </mxCell>
        <mxCell id="JigIvYNYRkP4Nbl_iMZG-98" value="Register as Service Provider" style="whiteSpace=wrap;strokeWidth=2;" parent="1" vertex="1">
          <mxGeometry x="770" y="1413" width="258" height="54" as="geometry" />
        </mxCell>
        <mxCell id="JigIvYNYRkP4Nbl_iMZG-99" value="Fill Registration Form" style="whiteSpace=wrap;strokeWidth=2;" parent="1" vertex="1">
          <mxGeometry x="792" y="1517" width="214" height="54" as="geometry" />
        </mxCell>
        <mxCell id="JigIvYNYRkP4Nbl_iMZG-100" value="Start Providing Service" style="whiteSpace=wrap;strokeWidth=2;" parent="1" vertex="1">
          <mxGeometry x="788" y="1621" width="222" height="54" as="geometry" />
        </mxCell>
        <mxCell id="JigIvYNYRkP4Nbl_iMZG-101" value="View Pending Requests" style="whiteSpace=wrap;strokeWidth=2;" parent="1" vertex="1">
          <mxGeometry x="787" y="1725" width="223" height="54" as="geometry" />
        </mxCell>
        <mxCell id="JigIvYNYRkP4Nbl_iMZG-102" value="" style="curved=1;startArrow=none;endArrow=block;exitX=0.5;exitY=1;entryX=0.5;entryY=0;rounded=0;" parent="1" source="JigIvYNYRkP4Nbl_iMZG-88" target="JigIvYNYRkP4Nbl_iMZG-89" edge="1">
          <mxGeometry relative="1" as="geometry">
            <Array as="points" />
          </mxGeometry>
        </mxCell>
        <mxCell id="JigIvYNYRkP4Nbl_iMZG-103" value="" style="curved=1;startArrow=none;endArrow=block;exitX=0.45;exitY=1;entryX=0.43;entryY=0;rounded=0;" parent="1" source="JigIvYNYRkP4Nbl_iMZG-89" target="JigIvYNYRkP4Nbl_iMZG-90" edge="1">
          <mxGeometry relative="1" as="geometry">
            <Array as="points">
              <mxPoint x="494" y="1044" />
            </Array>
          </mxGeometry>
        </mxCell>
        <mxCell id="JigIvYNYRkP4Nbl_iMZG-104" value="Yes" style="curved=1;startArrow=none;endArrow=block;exitX=0.5;exitY=1;entryX=0.5;entryY=0.01;rounded=0;" parent="1" source="JigIvYNYRkP4Nbl_iMZG-90" target="JigIvYNYRkP4Nbl_iMZG-91" edge="1">
          <mxGeometry relative="1" as="geometry">
            <Array as="points" />
          </mxGeometry>
        </mxCell>
        <mxCell id="JigIvYNYRkP4Nbl_iMZG-105" value="No" style="curved=1;startArrow=none;endArrow=block;exitX=0.57;exitY=0;entryX=0.54;entryY=1;rounded=0;" parent="1" source="JigIvYNYRkP4Nbl_iMZG-90" target="JigIvYNYRkP4Nbl_iMZG-89" edge="1">
          <mxGeometry relative="1" as="geometry">
            <Array as="points">
              <mxPoint x="526" y="1044" />
            </Array>
          </mxGeometry>
        </mxCell>
        <mxCell id="JigIvYNYRkP4Nbl_iMZG-106" value="" style="curved=1;startArrow=none;endArrow=block;exitX=0;exitY=0.7;entryX=0.5;entryY=0.01;rounded=0;" parent="1" source="JigIvYNYRkP4Nbl_iMZG-91" target="JigIvYNYRkP4Nbl_iMZG-92" edge="1">
          <mxGeometry relative="1" as="geometry">
            <Array as="points">
              <mxPoint x="136" y="1388" />
            </Array>
          </mxGeometry>
        </mxCell>
        <mxCell id="JigIvYNYRkP4Nbl_iMZG-107" value="" style="curved=1;startArrow=none;endArrow=block;exitX=0.07;exitY=1.01;entryX=0.5;entryY=0.01;rounded=0;" parent="1" source="JigIvYNYRkP4Nbl_iMZG-91" target="JigIvYNYRkP4Nbl_iMZG-93" edge="1">
          <mxGeometry relative="1" as="geometry">
            <Array as="points">
              <mxPoint x="390" y="1388" />
            </Array>
          </mxGeometry>
        </mxCell>
        <mxCell id="JigIvYNYRkP4Nbl_iMZG-108" value="" style="curved=1;startArrow=none;endArrow=block;exitX=0.93;exitY=1.01;entryX=0.5;entryY=0.01;rounded=0;" parent="1" source="JigIvYNYRkP4Nbl_iMZG-91" target="JigIvYNYRkP4Nbl_iMZG-94" edge="1">
          <mxGeometry relative="1" as="geometry">
            <Array as="points">
              <mxPoint x="631" y="1388" />
            </Array>
          </mxGeometry>
        </mxCell>
        <mxCell id="JigIvYNYRkP4Nbl_iMZG-109" value="" style="curved=1;startArrow=none;endArrow=block;exitX=0.5;exitY=1.01;entryX=0.5;entryY=0.01;rounded=0;" parent="1" source="JigIvYNYRkP4Nbl_iMZG-94" target="JigIvYNYRkP4Nbl_iMZG-95" edge="1">
          <mxGeometry relative="1" as="geometry">
            <Array as="points" />
          </mxGeometry>
        </mxCell>
        <mxCell id="JigIvYNYRkP4Nbl_iMZG-110" value="" style="curved=1;startArrow=none;endArrow=block;exitX=0.5;exitY=1.01;entryX=0.5;entryY=0.01;rounded=0;" parent="1" source="JigIvYNYRkP4Nbl_iMZG-95" target="JigIvYNYRkP4Nbl_iMZG-96" edge="1">
          <mxGeometry relative="1" as="geometry">
            <Array as="points" />
          </mxGeometry>
        </mxCell>
        <mxCell id="JigIvYNYRkP4Nbl_iMZG-111" value="" style="curved=1;startArrow=none;endArrow=block;exitX=0.5;exitY=1.01;entryX=0.5;entryY=0.01;rounded=0;" parent="1" source="JigIvYNYRkP4Nbl_iMZG-96" target="JigIvYNYRkP4Nbl_iMZG-97" edge="1">
          <mxGeometry relative="1" as="geometry">
            <Array as="points" />
          </mxGeometry>
        </mxCell>
        <mxCell id="JigIvYNYRkP4Nbl_iMZG-112" value="" style="curved=1;startArrow=none;endArrow=block;exitX=1;exitY=0.69;entryX=0.5;entryY=0.01;rounded=0;" parent="1" source="JigIvYNYRkP4Nbl_iMZG-91" target="JigIvYNYRkP4Nbl_iMZG-98" edge="1">
          <mxGeometry relative="1" as="geometry">
            <Array as="points">
              <mxPoint x="899" y="1388" />
            </Array>
          </mxGeometry>
        </mxCell>
        <mxCell id="JigIvYNYRkP4Nbl_iMZG-113" value="" style="curved=1;startArrow=none;endArrow=block;exitX=0.5;exitY=1.01;entryX=0.5;entryY=0.01;rounded=0;" parent="1" source="JigIvYNYRkP4Nbl_iMZG-98" target="JigIvYNYRkP4Nbl_iMZG-99" edge="1">
          <mxGeometry relative="1" as="geometry">
            <Array as="points" />
          </mxGeometry>
        </mxCell>
        <mxCell id="JigIvYNYRkP4Nbl_iMZG-114" value="" style="curved=1;startArrow=none;endArrow=block;exitX=0.5;exitY=1.01;entryX=0.5;entryY=0.01;rounded=0;" parent="1" source="JigIvYNYRkP4Nbl_iMZG-99" target="JigIvYNYRkP4Nbl_iMZG-100" edge="1">
          <mxGeometry relative="1" as="geometry">
            <Array as="points" />
          </mxGeometry>
        </mxCell>
        <mxCell id="JigIvYNYRkP4Nbl_iMZG-115" value="" style="curved=1;startArrow=none;endArrow=block;exitX=0.5;exitY=1.01;entryX=0.5;entryY=0.01;rounded=0;" parent="1" source="JigIvYNYRkP4Nbl_iMZG-100" target="JigIvYNYRkP4Nbl_iMZG-101" edge="1">
          <mxGeometry relative="1" as="geometry">
            <Array as="points" />
          </mxGeometry>
        </mxCell>
        <mxCell id="JigIvYNYRkP4Nbl_iMZG-116" value="User Opens App" style="whiteSpace=wrap;strokeWidth=2;" parent="1" vertex="1">
          <mxGeometry x="90" y="1934" width="171" height="54" as="geometry" />
        </mxCell>
        <mxCell id="JigIvYNYRkP4Nbl_iMZG-117" value="Login or Register" style="whiteSpace=wrap;strokeWidth=2;" parent="1" vertex="1">
          <mxGeometry x="314" y="1934" width="180" height="54" as="geometry" />
        </mxCell>
        <mxCell id="JigIvYNYRkP4Nbl_iMZG-118" value="Credentials Verified?" style="rhombus;strokeWidth=2;whiteSpace=wrap;" parent="1" vertex="1">
          <mxGeometry x="570" y="1860" width="202" height="202" as="geometry" />
        </mxCell>
        <mxCell id="JigIvYNYRkP4Nbl_iMZG-119" value="Go to Home" style="whiteSpace=wrap;strokeWidth=2;" parent="1" vertex="1">
          <mxGeometry x="850" y="1934" width="145" height="54" as="geometry" />
        </mxCell>
        <mxCell id="JigIvYNYRkP4Nbl_iMZG-120" value="Browse Services" style="whiteSpace=wrap;strokeWidth=2;" parent="1" vertex="1">
          <mxGeometry x="1087" y="1882" width="174" height="54" as="geometry" />
        </mxCell>
        <mxCell id="JigIvYNYRkP4Nbl_iMZG-121" value="Choose Service" style="whiteSpace=wrap;strokeWidth=2;" parent="1" vertex="1">
          <mxGeometry x="1090" y="1986" width="167" height="54" as="geometry" />
        </mxCell>
        <mxCell id="JigIvYNYRkP4Nbl_iMZG-122" value="Check Availability" style="whiteSpace=wrap;strokeWidth=2;" parent="1" vertex="1">
          <mxGeometry x="1366" y="1986" width="186" height="54" as="geometry" />
        </mxCell>
        <mxCell id="JigIvYNYRkP4Nbl_iMZG-123" value="Availability?" style="rhombus;strokeWidth=2;whiteSpace=wrap;" parent="1" vertex="1">
          <mxGeometry x="1658" y="1943" width="139" height="139" as="geometry" />
        </mxCell>
        <mxCell id="JigIvYNYRkP4Nbl_iMZG-124" value="Book Service" style="whiteSpace=wrap;strokeWidth=2;" parent="1" vertex="1">
          <mxGeometry x="1952" y="1934" width="151" height="54" as="geometry" />
        </mxCell>
        <mxCell id="JigIvYNYRkP4Nbl_iMZG-125" value="Show Available Times" style="whiteSpace=wrap;strokeWidth=2;" parent="1" vertex="1">
          <mxGeometry x="1922" y="2038" width="212" height="54" as="geometry" />
        </mxCell>
        <mxCell id="JigIvYNYRkP4Nbl_iMZG-126" value="Confirm Booking" style="whiteSpace=wrap;strokeWidth=2;" parent="1" vertex="1">
          <mxGeometry x="2221" y="1934" width="177" height="54" as="geometry" />
        </mxCell>
        <mxCell id="JigIvYNYRkP4Nbl_iMZG-127" value="Send Confirmation" style="whiteSpace=wrap;strokeWidth=2;" parent="1" vertex="1">
          <mxGeometry x="2481" y="1934" width="192" height="54" as="geometry" />
        </mxCell>
        <mxCell id="JigIvYNYRkP4Nbl_iMZG-128" value="Register as Service Provider" style="whiteSpace=wrap;strokeWidth=2;" parent="1" vertex="1">
          <mxGeometry x="1045" y="2163" width="258" height="54" as="geometry" />
        </mxCell>
        <mxCell id="JigIvYNYRkP4Nbl_iMZG-129" value="Fill Registration Form" style="whiteSpace=wrap;strokeWidth=2;" parent="1" vertex="1">
          <mxGeometry x="1353" y="2163" width="214" height="54" as="geometry" />
        </mxCell>
        <mxCell id="JigIvYNYRkP4Nbl_iMZG-130" value="Start Providing Service" style="whiteSpace=wrap;strokeWidth=2;" parent="1" vertex="1">
          <mxGeometry x="1617" y="2163" width="222" height="54" as="geometry" />
        </mxCell>
        <mxCell id="JigIvYNYRkP4Nbl_iMZG-131" value="View Pending Requests" style="whiteSpace=wrap;strokeWidth=2;" parent="1" vertex="1">
          <mxGeometry x="1916" y="2163" width="223" height="54" as="geometry" />
        </mxCell>
        <mxCell id="JigIvYNYRkP4Nbl_iMZG-132" value="Accept or Reject Request" style="whiteSpace=wrap;strokeWidth=2;" parent="1" vertex="1">
          <mxGeometry x="2189" y="2163" width="241" height="54" as="geometry" />
        </mxCell>
        <mxCell id="JigIvYNYRkP4Nbl_iMZG-133" value="Admin" style="whiteSpace=wrap;strokeWidth=2;" parent="1" vertex="1">
          <mxGeometry x="123" y="2194" width="105" height="54" as="geometry" />
        </mxCell>
        <mxCell id="JigIvYNYRkP4Nbl_iMZG-134" value="Manage Users" style="whiteSpace=wrap;strokeWidth=2;" parent="1" vertex="1">
          <mxGeometry x="326" y="2038" width="157" height="54" as="geometry" />
        </mxCell>
        <mxCell id="JigIvYNYRkP4Nbl_iMZG-135" value="Manage Services" style="whiteSpace=wrap;strokeWidth=2;" parent="1" vertex="1">
          <mxGeometry x="316" y="2142" width="177" height="54" as="geometry" />
        </mxCell>
        <mxCell id="JigIvYNYRkP4Nbl_iMZG-136" value="Generate Reports" style="whiteSpace=wrap;strokeWidth=2;" parent="1" vertex="1">
          <mxGeometry x="311" y="2246" width="185" height="54" as="geometry" />
        </mxCell>
        <mxCell id="JigIvYNYRkP4Nbl_iMZG-137" value="" style="curved=1;startArrow=none;endArrow=block;exitX=1;exitY=0.5;entryX=0;entryY=0.5;rounded=0;" parent="1" source="JigIvYNYRkP4Nbl_iMZG-116" target="JigIvYNYRkP4Nbl_iMZG-117" edge="1">
          <mxGeometry relative="1" as="geometry">
            <Array as="points" />
          </mxGeometry>
        </mxCell>
        <mxCell id="JigIvYNYRkP4Nbl_iMZG-138" value="" style="curved=1;startArrow=none;endArrow=block;exitX=1;exitY=0.3;entryX=0;entryY=0.44;rounded=0;" parent="1" source="JigIvYNYRkP4Nbl_iMZG-117" target="JigIvYNYRkP4Nbl_iMZG-118" edge="1">
          <mxGeometry relative="1" as="geometry">
            <Array as="points">
              <mxPoint x="533" y="1945" />
            </Array>
          </mxGeometry>
        </mxCell>
        <mxCell id="JigIvYNYRkP4Nbl_iMZG-139" value="Yes" style="curved=1;startArrow=none;endArrow=block;exitX=1;exitY=0.5;entryX=0;entryY=0.5;rounded=0;" parent="1" source="JigIvYNYRkP4Nbl_iMZG-118" target="JigIvYNYRkP4Nbl_iMZG-119" edge="1">
          <mxGeometry relative="1" as="geometry">
            <Array as="points" />
          </mxGeometry>
        </mxCell>
        <mxCell id="JigIvYNYRkP4Nbl_iMZG-140" value="No" style="curved=1;startArrow=none;endArrow=block;exitX=0;exitY=0.56;entryX=1;entryY=0.7;rounded=0;" parent="1" source="JigIvYNYRkP4Nbl_iMZG-118" target="JigIvYNYRkP4Nbl_iMZG-117" edge="1">
          <mxGeometry relative="1" as="geometry">
            <Array as="points">
              <mxPoint x="533" y="1977" />
            </Array>
          </mxGeometry>
        </mxCell>
        <mxCell id="JigIvYNYRkP4Nbl_iMZG-141" value="" style="curved=1;startArrow=none;endArrow=block;exitX=0.85;exitY=0;entryX=0;entryY=0.5;rounded=0;" parent="1" source="JigIvYNYRkP4Nbl_iMZG-119" target="JigIvYNYRkP4Nbl_iMZG-120" edge="1">
          <mxGeometry relative="1" as="geometry">
            <Array as="points">
              <mxPoint x="1020" y="1909" />
            </Array>
          </mxGeometry>
        </mxCell>
        <mxCell id="JigIvYNYRkP4Nbl_iMZG-142" value="" style="curved=1;startArrow=none;endArrow=block;exitX=0.85;exitY=1;entryX=0;entryY=0.5;rounded=0;" parent="1" source="JigIvYNYRkP4Nbl_iMZG-119" target="JigIvYNYRkP4Nbl_iMZG-121" edge="1">
          <mxGeometry relative="1" as="geometry">
            <Array as="points">
              <mxPoint x="1020" y="2013" />
            </Array>
          </mxGeometry>
        </mxCell>
        <mxCell id="JigIvYNYRkP4Nbl_iMZG-143" value="" style="curved=1;startArrow=none;endArrow=block;exitX=1;exitY=0.5;entryX=0;entryY=0.5;rounded=0;" parent="1" source="JigIvYNYRkP4Nbl_iMZG-121" target="JigIvYNYRkP4Nbl_iMZG-122" edge="1">
          <mxGeometry relative="1" as="geometry">
            <Array as="points" />
          </mxGeometry>
        </mxCell>
        <mxCell id="JigIvYNYRkP4Nbl_iMZG-144" value="" style="curved=1;startArrow=none;endArrow=block;exitX=1.01;exitY=0.5;entryX=0;entryY=0.5;rounded=0;" parent="1" source="JigIvYNYRkP4Nbl_iMZG-122" target="JigIvYNYRkP4Nbl_iMZG-123" edge="1">
          <mxGeometry relative="1" as="geometry">
            <Array as="points" />
          </mxGeometry>
        </mxCell>
        <mxCell id="JigIvYNYRkP4Nbl_iMZG-145" value="Yes" style="curved=1;startArrow=none;endArrow=block;exitX=1;exitY=0.33;entryX=0;entryY=0.5;rounded=0;" parent="1" source="JigIvYNYRkP4Nbl_iMZG-123" target="JigIvYNYRkP4Nbl_iMZG-124" edge="1">
          <mxGeometry relative="1" as="geometry">
            <Array as="points">
              <mxPoint x="1878" y="1961" />
            </Array>
          </mxGeometry>
        </mxCell>
        <mxCell id="JigIvYNYRkP4Nbl_iMZG-146" value="No" style="curved=1;startArrow=none;endArrow=block;exitX=1;exitY=0.68;entryX=0;entryY=0.5;rounded=0;" parent="1" source="JigIvYNYRkP4Nbl_iMZG-123" target="JigIvYNYRkP4Nbl_iMZG-125" edge="1">
          <mxGeometry relative="1" as="geometry">
            <Array as="points">
              <mxPoint x="1878" y="2065" />
            </Array>
          </mxGeometry>
        </mxCell>
        <mxCell id="JigIvYNYRkP4Nbl_iMZG-147" value="" style="curved=1;startArrow=none;endArrow=block;exitX=1;exitY=0.5;entryX=0;entryY=0.5;rounded=0;" parent="1" source="JigIvYNYRkP4Nbl_iMZG-124" target="JigIvYNYRkP4Nbl_iMZG-126" edge="1">
          <mxGeometry relative="1" as="geometry">
            <Array as="points" />
          </mxGeometry>
        </mxCell>
        <mxCell id="JigIvYNYRkP4Nbl_iMZG-148" value="" style="curved=1;startArrow=none;endArrow=block;exitX=1;exitY=0.5;entryX=0;entryY=0.5;rounded=0;" parent="1" source="JigIvYNYRkP4Nbl_iMZG-126" target="JigIvYNYRkP4Nbl_iMZG-127" edge="1">
          <mxGeometry relative="1" as="geometry">
            <Array as="points" />
          </mxGeometry>
        </mxCell>
        <mxCell id="JigIvYNYRkP4Nbl_iMZG-149" value="" style="curved=1;startArrow=none;endArrow=block;exitX=0.58;exitY=1;entryX=0;entryY=0.51;rounded=0;" parent="1" source="JigIvYNYRkP4Nbl_iMZG-119" target="JigIvYNYRkP4Nbl_iMZG-128" edge="1">
          <mxGeometry relative="1" as="geometry">
            <Array as="points">
              <mxPoint x="1020" y="2190" />
            </Array>
          </mxGeometry>
        </mxCell>
        <mxCell id="JigIvYNYRkP4Nbl_iMZG-150" value="" style="curved=1;startArrow=none;endArrow=block;exitX=1;exitY=0.51;entryX=0;entryY=0.51;rounded=0;" parent="1" source="JigIvYNYRkP4Nbl_iMZG-128" target="JigIvYNYRkP4Nbl_iMZG-129" edge="1">
          <mxGeometry relative="1" as="geometry">
            <Array as="points" />
          </mxGeometry>
        </mxCell>
        <mxCell id="JigIvYNYRkP4Nbl_iMZG-151" value="" style="curved=1;startArrow=none;endArrow=block;exitX=1;exitY=0.51;entryX=0;entryY=0.51;rounded=0;" parent="1" source="JigIvYNYRkP4Nbl_iMZG-129" target="JigIvYNYRkP4Nbl_iMZG-130" edge="1">
          <mxGeometry relative="1" as="geometry">
            <Array as="points" />
          </mxGeometry>
        </mxCell>
        <mxCell id="JigIvYNYRkP4Nbl_iMZG-152" value="" style="curved=1;startArrow=none;endArrow=block;exitX=1;exitY=0.51;entryX=0;entryY=0.51;rounded=0;" parent="1" source="JigIvYNYRkP4Nbl_iMZG-130" target="JigIvYNYRkP4Nbl_iMZG-131" edge="1">
          <mxGeometry relative="1" as="geometry">
            <Array as="points" />
          </mxGeometry>
        </mxCell>
        <mxCell id="JigIvYNYRkP4Nbl_iMZG-153" value="" style="curved=1;startArrow=none;endArrow=block;exitX=1;exitY=0.51;entryX=0;entryY=0.51;rounded=0;" parent="1" source="JigIvYNYRkP4Nbl_iMZG-131" target="JigIvYNYRkP4Nbl_iMZG-132" edge="1">
          <mxGeometry relative="1" as="geometry">
            <Array as="points" />
          </mxGeometry>
        </mxCell>
        <mxCell id="JigIvYNYRkP4Nbl_iMZG-154" value="" style="curved=1;startArrow=none;endArrow=block;exitX=0.68;exitY=0;entryX=0;entryY=0.5;rounded=0;" parent="1" source="JigIvYNYRkP4Nbl_iMZG-133" target="JigIvYNYRkP4Nbl_iMZG-134" edge="1">
          <mxGeometry relative="1" as="geometry">
            <Array as="points">
              <mxPoint x="286" y="2065" />
            </Array>
          </mxGeometry>
        </mxCell>
        <mxCell id="JigIvYNYRkP4Nbl_iMZG-155" value="" style="curved=1;startArrow=none;endArrow=block;exitX=1;exitY=0.04;entryX=0;entryY=0.5;rounded=0;" parent="1" source="JigIvYNYRkP4Nbl_iMZG-133" target="JigIvYNYRkP4Nbl_iMZG-135" edge="1">
          <mxGeometry relative="1" as="geometry">
            <Array as="points">
              <mxPoint x="286" y="2169" />
            </Array>
          </mxGeometry>
        </mxCell>
        <mxCell id="JigIvYNYRkP4Nbl_iMZG-156" value="" style="curved=1;startArrow=none;endArrow=block;exitX=1;exitY=0.96;entryX=0;entryY=0.5;rounded=0;" parent="1" source="JigIvYNYRkP4Nbl_iMZG-133" target="JigIvYNYRkP4Nbl_iMZG-136" edge="1">
          <mxGeometry relative="1" as="geometry">
            <Array as="points">
              <mxPoint x="286" y="2273" />
            </Array>
          </mxGeometry>
        </mxCell>
      </root>
    </mxGraphModel>
  </diagram>
</mxfile>
